<?xml version="1.0" encoding="UTF-8" standalone="no"?>
<svg width="200" height="200" viewBox="0 0 200 200" fill="none" xmlns="http://www.w3.org/2000/svg">
  <!-- Circuit board pattern -->
  <path d="M10 10H50V40H90V80H50V120H90V160H130V120H170V80H130V40H170V10H190" stroke="#1A2526" stroke-width="2" stroke-linecap="round"/>
  <path d="M10 190H50V150H90V110H130V150H170V190" stroke="#1A2526" stroke-width="2" stroke-linecap="round"/>
  
  <!-- Circuit nodes -->
  <circle cx="10" cy="10" r="4" fill="#FF6200"/>
  <circle cx="50" cy="10" r="4" fill="#1A2526"/>
  <circle cx="50" cy="40" r="4" fill="#1A2526"/>
  <circle cx="90" cy="40" r="4" fill="#1A2526"/>
  <circle cx="90" cy="80" r="4" fill="#1A2526"/>
  <circle cx="50" cy="80" r="4" fill="#1A2526"/>
  <circle cx="50" cy="120" r="4" fill="#1A2526"/>
  <circle cx="90" cy="120" r="4" fill="#1A2526"/>
  <circle cx="90" cy="160" r="4" fill="#1A2526"/>
  <circle cx="130" cy="160" r="4" fill="#1A2526"/>
  <circle cx="130" cy="120" r="4" fill="#1A2526"/>
  <circle cx="170" cy="120" r="4" fill="#1A2526"/>
  <circle cx="170" cy="80" r="4" fill="#1A2526"/>
  <circle cx="130" cy="80" r="4" fill="#1A2526"/>
  <circle cx="130" cy="40" r="4" fill="#1A2526"/>
  <circle cx="170" cy="40" r="4" fill="#1A2526"/>
  <circle cx="170" cy="10" r="4" fill="#1A2526"/>
  <circle cx="190" cy="10" r="4" fill="#FFC107"/>
  
  <circle cx="10" cy="190" r="4" fill="#1A2526"/>
  <circle cx="50" cy="190" r="4" fill="#1A2526"/>
  <circle cx="50" cy="150" r="4" fill="#1A2526"/>
  <circle cx="90" cy="150" r="4" fill="#1A2526"/>
  <circle cx="90" cy="110" r="4" fill="#1A2526"/>
  <circle cx="130" cy="110" r="4" fill="#1A2526"/>
  <circle cx="130" cy="150" r="4" fill="#1A2526"/>
  <circle cx="170" cy="150" r="4" fill="#1A2526"/>
  <circle cx="170" cy="190" r="4" fill="#FF6200"/>
</svg>
