<?xml version="1.0" encoding="UTF-8" standalone="no"?>
<svg width="200" height="200" viewBox="0 0 200 200" fill="none" xmlns="http://www.w3.org/2000/svg">
  <!-- Background: Circuit Pattern (Original) -->
  <path d="M10 10H50V40H90V80H50V120H90V160H130V120H170V80H130V40H170V10H190" stroke="#1A2526" stroke-width="2" stroke-linecap="round"/>
  <path d="M10 190H50V150H90V110H130V150H170V190" stroke="#1A2526" stroke-width="2" stroke-linecap="round"/>
  
  <!-- Background Circuit nodes (Original) -->
  <circle cx="10" cy="10" r="4" fill="#FF6200"/>
  <circle cx="50" cy="10" r="4" fill="#1A2526"/>
  <circle cx="50" cy="40" r="4" fill="#1A2526"/>
  <circle cx="90" cy="40" r="4" fill="#1A2526"/>
  <circle cx="90" cy="80" r="4" fill="#1A2526"/>
  <circle cx="50" cy="80" r="4" fill="#1A2526"/>
  <circle cx="50" cy="120" r="4" fill="#1A2526"/>
  <circle cx="90" cy="120" r="4" fill="#1A2526"/>
  <circle cx="90" cy="160" r="4" fill="#1A2526"/>
  <circle cx="130" cy="160" r="4" fill="#1A2526"/>
  <circle cx="130" cy="120" r="4" fill="#1A2526"/>
  <circle cx="170" cy="120" r="4" fill="#1A2526"/>
  <circle cx="170" cy="80" r="4" fill="#1A2526"/>
  <circle cx="130" cy="80" r="4" fill="#1A2526"/>
  <circle cx="130" cy="40" r="4" fill="#1A2526"/>
  <circle cx="170" cy="40" r="4" fill="#1A2526"/>
  <circle cx="170" cy="10" r="4" fill="#1A2526"/>
  <circle cx="190" cy="10" r="4" fill="#FFC107"/>
  
  <circle cx="10" cy="190" r="4" fill="#1A2526"/>
  <circle cx="50" cy="190" r="4" fill="#1A2526"/>
  <circle cx="50" cy="150" r="4" fill="#1A2526"/>
  <circle cx="90" cy="150" r="4" fill="#1A2526"/>
  <circle cx="90" cy="110" r="4" fill="#1A2526"/>
  <circle cx="130" cy="110" r="4" fill="#1A2526"/>
  <circle cx="130" cy="150" r="4" fill="#1A2526"/>
  <circle cx="170" cy="150" r="4" fill="#1A2526"/>
  <circle cx="170" cy="190" r="4" fill="#FF6200"/>

  <!-- Gradient definitions for logo -->
  <defs>
    <linearGradient id="flame_gradient" x1="60" y1="10" x2="60" y2="90" gradientUnits="userSpaceOnUse">
      <stop offset="0" stop-color="#FFC107"/>
      <stop offset="0.5" stop-color="#FF6200"/>
      <stop offset="1" stop-color="#D32F2F"/>
    </linearGradient>
  </defs>

  <!-- Foreground: Catalyst Circuit Logo (Centered, scaled from 120x120 to fit 200x200) -->
  <g transform="translate(40, 40) scale(1.0)">
    <!-- Stylized flame rising from circuit (Original) -->
    <path d="M60 10C60 10 40 30 40 50C40 70 60 70 60 90C60 70 80 70 80 50C80 30 60 10 60 10Z" fill="url(#flame_gradient)"/>
    
    <!-- Circuit base (Original) -->
    <path d="M20 90H40M40 90V100M40 100H80M80 100V90M80 90H100" stroke="#1A2526" stroke-width="3" stroke-linecap="round"/>
    <path d="M30 110H90" stroke="#1A2526" stroke-width="3" stroke-linecap="round"/>
    
    <!-- Circuit nodes (Original) -->
    <circle cx="20" cy="90" r="4" fill="#1A2526"/>
    <circle cx="40" cy="90" r="4" fill="#1A2526"/>
    <circle cx="40" cy="100" r="4" fill="#1A2526"/>
    <circle cx="80" cy="100" r="4" fill="#1A2526"/>
    <circle cx="80" cy="90" r="4" fill="#1A2526"/>
    <circle cx="100" cy="90" r="4" fill="#1A2526"/>
    <circle cx="30" cy="110" r="4" fill="#1A2526"/>
    <circle cx="90" cy="110" r="4" fill="#1A2526"/>
    
    <!-- Spark at the tip (Original) -->
    <circle cx="60" cy="15" r="5" fill="#FFC107">
      <animate attributeName="opacity" values="0.5;1;0.5" dur="2s" repeatCount="indefinite" />
      <animate attributeName="r" values="3;5;3" dur="2s" repeatCount="indefinite" />
    </circle>
  </g>
</svg>
